<svg id="icons" enable-background="new 0 0 64 64" height="512" viewBox="0 0 64 64" width="512" xmlns="http://www.w3.org/2000/svg"><path d="m8.029 8.029c9.37-9.37 24.569-9.37 33.939 0 8.891 8.89 9.351 23.04 1.351 32.46-.42.51-.87 1-1.351 1.479-.479.48-.97.931-1.479 1.351-9.42 8-23.57 7.54-32.46-1.351-9.37-9.369-9.37-24.569 0-33.939z" fill="#e6e9ed"/><path d="m12.999 42.239c3.02 2.109 6.48 3.33 10 3.66 1.33.13 2.67.13 4 0 3.52-.33 6.98-1.551 10-3.66v-.01c1-.69 1.96-1.49 2.85-2.381 8.2-8.199 8.2-21.5 0-29.699-8.199-8.2-21.5-8.2-29.699 0-8.2 8.199-8.2 21.5 0 29.699.89.891 1.85 1.69 2.85 2.381v.01z" fill="#5d9cec"/><path d="m33.999 22.039h-17.99v-8.04c0-1.1.9-2 2-2h14.01c1.101 0 2 .9 2 2v8.04z" fill="#f5f7fa"/><path d="m32.019 11.999h-3.003c1.101 0 2 .9 2 2v8.04h2.983.02v-8.04c0-1.1-.9-2-2-2z" fill="#e6e9ed"/><path d="m22.999 45.899-2-8.9 2 1 2-1 2 1 2-1-2 8.9c-1.33.13-2.67.13-4 0z" fill="#5d9cec"/><path d="m36.999 42.229v.01c-3.02 2.109-6.48 3.33-10 3.66l2-8.9h3c2.77 0 5 2.24 5 5z" fill="#f5f7fa"/><path d="m31.999 36.999h-3c2.769.002 4.997 2.241 4.997 5v1.971c1.036-.49 2.044-1.061 3.003-1.73v-.01-.23c0-2.761-2.23-5.001-5-5.001z" fill="#e6e9ed"/><path d="m24.999 33.999c1.43 0 2.8-.34 4-.94v3.94l-2 1-2-1-2 1-2-1v-3.94c1.2.6 2.57.94 4 .94z" fill="#87bcf4"/><path d="m20.999 36.999 2 8.9c-3.52-.33-6.98-1.551-10-3.66v-.01-.23c0-2.76 2.24-5 5-5z" fill="#f5f7fa"/><path d="m44.589 50.249 1.42-1.42 2.82-2.82 1.42-1.42 11.58 11.58c1.56 1.561 1.56 4.1 0 5.66-1.561 1.56-4.1 1.56-5.66 0z" fill="#656d78"/><path d="m41.969 41.969c.48-.479.931-.97 1.351-1.479l5.51 5.52-2.82 2.82-5.51-5.5-.01-.01c.509-.421.999-.871 1.479-1.351z" fill="#ccd1d9"/><path d="m16.009 22.039h17.99v2.96c0 3.53-2.04 6.59-5 8.06-1.2.601-2.57.94-4 .94s-2.8-.34-4-.94c-2.95-1.46-4.98-4.5-5-8.01v-.05-2.96z" fill="#eac6bb"/><path d="m30.996 22.039v2.96c0 3.53-2.04 6.59-5 8.06-.771.386-1.616.649-2.498.8.49.083.989.141 1.501.141 1.43 0 2.8-.34 4-.94 2.96-1.47 5-4.529 5-8.06v-2.96h-3.003z" fill="#d3b1a9"/><g fill="#ed5565"><path d="m25.003 20.011c-.553 0-1-.447-1-1v-4.012c0-.553.447-1 1-1s1 .447 1 1v4.012c0 .552-.447 1-1 1z"/><path d="m27.004 18.018h-4.002c-.553 0-1-.447-1-1s.447-1 1-1h4.002c.553 0 1 .447 1 1s-.447 1-1 1z"/></g></svg>