<?xml version="1.0" encoding="iso-8859-1"?>
<!-- Generator: Adobe Illustrator 19.0.0, SVG Export Plug-In . SVG Version: 6.00 Build 0)  -->
<svg version="1.1" id="Capa_1" xmlns="http://www.w3.org/2000/svg" xmlns:xlink="http://www.w3.org/1999/xlink" x="0px" y="0px"
	 viewBox="0 0 480 480" style="enable-background:new 0 0 480 480;" xml:space="preserve">
<path style="fill:#ECECEC;" d="M216,88H40c-17.672,0-32,14.328-32,32v320c0,17.672,14.328,32,32,32h192"/>
<g>
	<circle style="fill:#F2BA24;" cx="72" cy="168" r="32"/>
	<circle style="fill:#F2BA24;" cx="72" cy="280" r="32"/>
	<circle style="fill:#F2BA24;" cx="72" cy="392" r="32"/>
	<circle style="fill:#F2BA24;" cx="168" cy="168" r="32"/>
	<circle style="fill:#F2BA24;" cx="168" cy="280" r="32"/>
	<circle style="fill:#F2BA24;" cx="168" cy="392" r="32"/>
</g>
<path style="fill:#F7F7F7;" d="M456,440H216c-8.84,0-16-7.16-16-16V136c0-8.84,7.16-16,16-16h240c8.84,0,16,7.16,16,16v288
	C472,432.84,464.84,440,456,440z"/>
<g>
	<path style="fill:#BF26B8;" d="M456,440H216v16c0,8.84,7.16,16,16,16h208c8.84,0,16-7.16,16-16V440z"/>
	<path style="fill:#BF26B8;" d="M296,392h-96V168h96c8.84,0,16,7.16,16,16v192C312,384.84,304.84,392,296,392z"/>
	<path style="fill:#BF26B8;" d="M472,328h-96c-8.84,0-16-7.16-16-16V184c0-8.84,7.16-16,16-16h96V328z"/>
	<path style="fill:#BF26B8;" d="M472,392H360v-16c0-8.84,7.16-16,16-16h96V392z"/>
</g>
<rect x="216" y="88" style="fill:#F7F7F7;" width="240" height="32"/>
<path style="fill:#BF26B8;" d="M456,88H216c-8.84,0-16-7.16-16-16V8h272v64C472,80.84,464.84,88,456,88z"/>
<polygon style="fill:#F7F7F7;" points="272,256 240,256 240,216 200,216 200,344 240,344 240,304 272,304 "/>
<path d="M72,128c-22.056,0-40,17.944-40,40s17.944,40,40,40s40-17.944,40-40S94.056,128,72,128z M72,192
	c-10.416,0-19.216-6.712-22.528-16H72v-16H49.472c3.312-9.288,12.112-16,22.528-16c13.232,0,24,10.768,24,24S85.232,192,72,192z"/>
<path d="M72,240c-22.056,0-40,17.944-40,40s17.944,40,40,40s40-17.944,40-40S94.056,240,72,240z M72,304
	c-10.416,0-19.216-6.712-22.528-16H72v-16H49.472c3.312-9.288,12.112-16,22.528-16c13.232,0,24,10.768,24,24S85.232,304,72,304z"/>
<path d="M72,352c-22.056,0-40,17.944-40,40s17.944,40,40,40s40-17.944,40-40S94.056,352,72,352z M72,416
	c-10.416,0-19.216-6.712-22.528-16H72v-16H49.472c3.312-9.288,12.112-16,22.528-16c13.232,0,24,10.768,24,24S85.232,416,72,416z"/>
<rect x="384" y="256" width="16" height="16"/>
<rect x="384" y="288" width="32" height="16"/>
<rect x="384" y="192" width="16" height="16"/>
<rect x="384" y="224" width="32" height="16"/>
<path d="M480,72V8c0-4.424-3.576-8-8-8H200c-4.424,0-8,3.576-8,8v64c0,2.816,0.576,5.488,1.472,8H40C17.944,80,0,97.944,0,120v320
	c0,22.056,17.944,40,40,40h192h208c13.232,0,24-10.768,24-24v-9.472c9.288-3.312,16-12.112,16-22.528v-32v-32v-32V168v-32
	c0-10.416-6.712-19.216-16-22.528V94.52C473.288,91.216,480,82.416,480,72z M208,72V16h16v40h16V16h88v40h16V16h87.752v40h16V16H464
	v56c0,4.416-3.584,8-8,8H216C211.584,80,208,76.416,208,72z M448,112H224V96h224V112z M16,440V120c0-13.232,10.768-24,24-24h168
	v17.472c-9.288,3.312-16,12.112-16,22.528v0.208c-6.704-5.08-14.96-8.208-24-8.208c-22.056,0-40,17.944-40,40s17.944,40,40,40
	c9.04,0,17.296-3.128,24-8.208V216v32.208c-6.704-5.08-14.96-8.208-24-8.208c-22.056,0-40,17.944-40,40s17.944,40,40,40
	c9.04,0,17.296-3.128,24-8.208V344v16.208c-6.704-5.08-14.96-8.208-24-8.208c-22.056,0-40,17.944-40,40s17.944,40,40,40
	c9.04,0,17.296-3.128,24-8.208V424c0,10.416,6.712,19.216,16,22.528V456c0,2.816,0.576,5.488,1.472,8H40
	C26.768,464,16,453.232,16,440z M145.472,384c3.312-9.288,12.112-16,22.528-16c13.232,0,24,10.768,24,24s-10.768,24-24,24
	c-10.416,0-19.216-6.712-22.528-16H168v-16H145.472z M145.472,272c3.312-9.288,12.112-16,22.528-16c13.232,0,24,10.768,24,24
	s-10.768,24-24,24c-10.416,0-19.216-6.712-22.528-16H168v-16H145.472z M145.472,160c3.312-9.288,12.112-16,22.528-16
	c13.232,0,24,10.768,24,24s-10.768,24-24,24c-10.416,0-19.216-6.712-22.528-16H168v-16H145.472z M240,264h24v32h-24
	c-4.424,0-8,3.576-8,8v32h-24V224h24v32C232,260.424,235.576,264,240,264z M208,352h32c4.424,0,8-3.576,8-8v-32h24
	c4.424,0,8-3.576,8-8v-48c0-4.424-3.576-8-8-8h-24v-32c0-4.424-3.576-8-8-8h-32v-32h88c4.416,0,8,3.584,8,8v192c0,4.416-3.584,8-8,8
	h-88V352z M448,456c0,4.416-3.584,8-8,8H232c-4.416,0-8-3.584-8-8v-8h224V456z M456,432H216c-4.416,0-8-3.584-8-8v-24h88
	c13.232,0,24-10.768,24-24V184c0-13.232-10.768-24-24-24h-88v-24c0-4.416,3.584-8,8-8h240c4.416,0,8,3.584,8,8v24h-88
	c-13.232,0-24,10.768-24,24v128c0,13.232,10.768,24,24,24h88v16h-88c-13.232,0-24,10.768-24,24v16c0,4.424,3.576,8,8,8h104v24
	C464,428.416,460.416,432,456,432z M464,192h-48v16h48v16h-32v16h32v16h-48v16h48v16h-32v16h32v16h-88c-4.416,0-8-3.584-8-8V184
	c0-4.416,3.584-8,8-8h88V192z M464,384h-96v-8c0-4.416,3.584-8,8-8h88V384z"/>
<rect x="256" y="40" width="16" height="16"/>
<rect x="288" y="40" width="16" height="16"/>
<rect x="368" y="40" width="16" height="16"/>
<rect x="400" y="40" width="16" height="16"/>
<g>
</g>
<g>
</g>
<g>
</g>
<g>
</g>
<g>
</g>
<g>
</g>
<g>
</g>
<g>
</g>
<g>
</g>
<g>
</g>
<g>
</g>
<g>
</g>
<g>
</g>
<g>
</g>
<g>
</g>
</svg>
