<?xml version="1.0" encoding="iso-8859-1"?>
<!-- Generator: Adobe Illustrator 19.0.0, SVG Export Plug-In . SVG Version: 6.00 Build 0)  -->
<svg version="1.1" id="Capa_1" xmlns="http://www.w3.org/2000/svg" xmlns:xlink="http://www.w3.org/1999/xlink" x="0px" y="0px"
	 viewBox="0 0 458.853 458.853" style="enable-background:new 0 0 458.853 458.853;" xml:space="preserve">
<path style="fill:#77A0D4;" d="M375.97,213.47c-22.784-15.312-56.448-27.792-95.856-33.728
	c-15.248,7.776-32.432,12.256-50.672,12.256c-18.256,0-35.44-4.48-50.672-12.256c-39.44,5.936-73.088,18.416-95.872,33.728
	c-8.624,5.808-13.456,15.76-13.456,26.144v64.384H389.41V239.63C389.41,229.23,384.594,219.262,375.97,213.47z"/>
<circle style="fill:#F5DDCF;" cx="229.442" cy="80" r="80"/>
<path style="fill:#565656;" d="M192.356,355.062l-64.72,65.105c-6.255,6.271-6.239,16.425,0.032,22.68l11.356,11.324
	c6.271,6.255,16.425,6.239,22.68-0.032l64.784-65.169L192.356,355.062z"/>
<path style="fill:#454545;" d="M174.721,372.726c8.88,13.904,20.576,25.296,34.016,33.872l17.584-17.696l-34.048-33.84
	L174.721,372.726z"/>
<path style="fill:#DDDDDC;" d="M269.442,215.998c-53.155,0-96.238,43.082-96.238,96.238s43.082,96.238,96.238,96.238
	s96.238-43.082,96.238-96.238S322.597,215.998,269.442,215.998z"/>
<path style="fill:#CCCBCB;" d="M212.732,368.943l0.634-0.634c5.639-5.641,6.586-14.466,2.24-21.158
	c-16.126-24.854-13.306-58.51,8.466-80.283c21.603-21.596,54.892-24.548,79.685-8.854c7.119,4.506,16.423,3.486,22.38-2.471
	c-31.327-31.322-82.086-31.338-113.405-0.016C181.413,286.849,181.413,337.621,212.732,368.943z"/>
<path style="fill:#CDDCF0;" d="M329.591,334.499c-5.95,16.056-17.788,28.855-33.346,36.009c-8.517,3.898-17.499,5.886-26.722,5.886
	c-25.006,0-47.91-14.676-58.336-37.373c-7.154-15.558-7.827-32.978-1.877-49.05c5.95-16.072,17.788-28.855,33.346-36.009
	c8.501-3.898,17.499-5.886,26.722-5.886c24.99,0,47.894,14.676,58.32,37.373C334.868,301.009,335.525,318.428,329.591,334.499z"/>
<path style="fill:#B9CCE7;" d="M333.05,303.998c-0.828-6.335-2.602-12.579-5.351-18.548c-10.426-22.696-33.33-37.373-58.32-37.373
	c-9.222,0-18.221,1.99-26.722,5.886c-15.558,7.154-27.394,19.938-33.346,36.01c-1.699,4.588-2.796,9.291-3.418,14.025H333.05
	L333.05,303.998z"/>
<circle style="fill:#DCE7F6;" cx="277.458" cy="320.264" r="24.08"/>
<path style="fill:#B9CCE7;" d="M221.66,328.613c0-35.383,28.775-64.158,64.158-64.158c13.522,0,26.032,4.25,36.378,11.404
	c-11.597-16.746-30.892-27.781-52.754-27.781c-35.383,0-64.158,28.775-64.158,64.158c0,21.862,11.035,41.158,27.781,52.754
	C225.894,354.629,221.66,342.118,221.66,328.613z"/>
<path style="fill:#A1B8D3;" d="M285.818,264.454c13.458,0,25.907,4.221,36.224,11.313c-11.922-17.158-31.888-27.674-52.638-27.687
	c-0.33,0-0.65,0.044-0.978,0.049c-32.431,0.495-58.442,24.765-62.534,55.87h20.694C236.257,280.803,259.154,264.454,285.818,264.454
	z"/>
<g>
</g>
<g>
</g>
<g>
</g>
<g>
</g>
<g>
</g>
<g>
</g>
<g>
</g>
<g>
</g>
<g>
</g>
<g>
</g>
<g>
</g>
<g>
</g>
<g>
</g>
<g>
</g>
<g>
</g>
</svg>
